<svg xmlns="http://www.w3.org/2000/svg" viewBox="0 0 360 160" width="360" height="160">
  <rect width="360" height="160" rx="10" fill="#F8F6F2"/>
  <g stroke="#B9A892" stroke-width="2">
    <line x1="30" y1="50" x2="345" y2="50"/>
    <line x1="30" y1="70" x2="345" y2="70"/>
    <line x1="30" y1="90" x2="345" y2="90"/>
    <line x1="30" y1="110" x2="345" y2="110"/>
    <line x1="30" y1="130" x2="345" y2="130"/>
  </g>
  <circle cx="48" cy="100" r="16" fill="none" stroke="#5B5147" stroke-width="3"/>
  <line x1="48" y1="100" x2="48" y2="40" stroke="#5B5147" stroke-width="3"/>
  <text x="40" y="152" font-family="Sarasa Gothic SC, sans-serif" font-size="11" fill="#8A7D6E">高音谱号</text>
  <g font-family="Sarasa Gothic SC, sans-serif" text-anchor="middle">
    <g fill="#5B5147">
      <circle cx="120" cy="130" r="7"/><line x1="127" y1="130" x2="127" y2="92" stroke="#5B5147" stroke-width="2"/>
      <circle cx="170" cy="118" r="7"/><line x1="177" y1="118" x2="177" y2="80" stroke="#5B5147" stroke-width="2"/>
      <circle cx="220" cy="106" r="7"/><line x1="227" y1="106" x2="227" y2="68" stroke="#5B5147" stroke-width="2"/>
      <circle cx="270" cy="94"  r="7"/><line x1="277" y1="94"  x2="277" y2="56" stroke="#5B5147" stroke-width="2"/>
      <circle cx="320" cy="82"  r="7"/><line x1="327" y1="82"  x2="327" y2="44" stroke="#5B5147" stroke-width="2"/>
    </g>
    <g font-size="12" font-weight="700" fill="#6BA8A0">
      <text x="120" y="152">C</text>
      <text x="170" y="152">D</text>
      <text x="220" y="152">E</text>
      <text x="270" y="152">F</text>
      <text x="320" y="152">G</text>
    </g>
  </g>
</svg>
